<svg width="84" height="70" viewBox="0 0 84 70" fill="none" xmlns="http://www.w3.org/2000/svg">
<path d="M9.29688 38.0703H4.16016L3.18359 41H0.0683594L5.36133 26.7812H8.07617L13.3984 41H10.2832L9.29688 38.0703ZM4.95117 35.6973H8.50586L6.71875 30.375L4.95117 35.6973ZM18.3789 36.7617L17.3633 37.7773V41H14.541V26H17.3633V34.3105L17.9102 33.6074L20.6152 30.4336H24.0039L20.1855 34.8379L24.3359 41H21.0938L18.3789 36.7617Z" fill="#E5E5E5"/>
<circle cx="49.5" cy="34.5" r="22.5" fill="#FEC576"/>
<path d="M35.8066 38.0801C35.8066 37.7351 35.6341 37.4649 35.2891 37.2696C34.9505 37.0677 34.4036 36.8887 33.6484 36.7325C31.1354 36.2051 29.8789 35.1374 29.8789 33.5293C29.8789 32.5918 30.2663 31.8106 31.041 31.1856C31.8223 30.5541 32.8411 30.2383 34.0977 30.2383C35.4388 30.2383 36.5098 30.5541 37.3105 31.1856C38.1178 31.8171 38.5215 32.6374 38.5215 33.6465H35.6992C35.6992 33.2429 35.569 32.9108 35.3086 32.6504C35.0482 32.3835 34.6413 32.25 34.0879 32.25C33.6126 32.25 33.2448 32.3575 32.9844 32.5723C32.724 32.7871 32.5938 33.0606 32.5938 33.3926C32.5938 33.7051 32.7402 33.959 33.0332 34.1543C33.3327 34.3431 33.834 34.5091 34.5371 34.6524C35.2402 34.7891 35.8327 34.9453 36.3145 35.1211C37.8053 35.668 38.5508 36.6153 38.5508 37.9629C38.5508 38.9265 38.1374 39.7077 37.3105 40.3067C36.4837 40.8991 35.416 41.1953 34.1074 41.1953C33.222 41.1953 32.4342 41.0391 31.7441 40.7266C31.0605 40.4076 30.5234 39.9746 30.1328 39.4278C29.7422 38.8744 29.5469 38.2787 29.5469 37.6407H32.2227C32.2487 38.142 32.4342 38.5261 32.7793 38.793C33.1243 39.0599 33.5866 39.1934 34.166 39.1934C34.7064 39.1934 35.1133 39.0925 35.3867 38.8907C35.6667 38.6823 35.8066 38.4121 35.8066 38.0801ZM43.1309 31.586C43.8796 30.6875 44.8203 30.2383 45.9531 30.2383C48.2448 30.2383 49.4069 31.5697 49.4395 34.2325V41H46.6172V34.3106C46.6172 33.7051 46.487 33.2591 46.2266 32.9727C45.9661 32.6797 45.5332 32.5332 44.9277 32.5332C44.1009 32.5332 43.502 32.8522 43.1309 33.4903V41H40.3086V26H43.1309V31.586ZM57.6914 41C57.5612 40.7461 57.4668 40.4304 57.4082 40.0528C56.7246 40.8145 55.8359 41.1953 54.7422 41.1953C53.707 41.1953 52.8477 40.8959 52.1641 40.2969C51.487 39.6979 51.1484 38.9427 51.1484 38.0313C51.1484 36.9115 51.5618 36.0521 52.3887 35.4532C53.222 34.8542 54.4232 34.5515 55.9922 34.545H57.291V33.9395C57.291 33.4512 57.1641 33.0606 56.9102 32.7676C56.6628 32.4746 56.2689 32.3282 55.7285 32.3282C55.2533 32.3282 54.8789 32.4421 54.6055 32.67C54.3385 32.8978 54.2051 33.2103 54.2051 33.6075H51.3828C51.3828 32.9955 51.5716 32.4291 51.9492 31.9082C52.3268 31.3874 52.8607 30.9805 53.5508 30.6875C54.2409 30.3881 55.0156 30.2383 55.875 30.2383C57.1771 30.2383 58.209 30.5671 58.9707 31.2246C59.7389 31.8757 60.123 32.7937 60.123 33.9785V38.5586C60.1296 39.5612 60.2695 40.3197 60.543 40.834V41H57.6914ZM55.3574 39.0371C55.7741 39.0371 56.1582 38.946 56.5098 38.7637C56.8613 38.5749 57.1217 38.3242 57.291 38.0117V36.1953H56.2363C54.8236 36.1953 54.0716 36.6836 53.9805 37.6602L53.9707 37.8262C53.9707 38.1778 54.0944 38.4675 54.3418 38.6953C54.5892 38.9232 54.9277 39.0371 55.3574 39.0371ZM66.0801 37.0059L68.0332 30.4336H71.0605L66.8125 42.6407L66.5781 43.1973C65.9466 44.5775 64.9049 45.2676 63.4531 45.2676C63.043 45.2676 62.6263 45.2058 62.2031 45.0821V42.9434L62.6328 42.9532C63.1667 42.9532 63.5638 42.8718 63.8242 42.709C64.0911 42.5463 64.2995 42.2761 64.4492 41.8985L64.7812 41.0293L61.0801 30.4336H64.1172L66.0801 37.0059Z" fill="#313552"/>
<path d="M83.0009 34.0002L74.7508 40.9284V27.072L83.0009 34.0002Z" fill="#FEC576"/>
</svg>
